<svg height="512px" style="enable-background:new 0 0 512 512;" version="1.1" viewBox="0 0 512 512" width="512px" xml:space="preserve" xmlns="http://www.w3.org/2000/svg" xmlns:xlink="http://www.w3.org/1999/xlink">
    <path d="M42.429,230.184c0.103-0.151,0.213-0.301,0.317-0.451c-0.019,0.15-0.041,0.3-0.06,0.451H42.429z M469.571,244.565c0-40.836-7.19-78.335-26.71-113.52C404.849,62.984,337.531,26.001,258.684,26.001 C128.909,25.745,56.25,123.577,42.746,229.734c39.35-56.862,108.576-112.566,204.38-115.896c0,0,101.706,0,92.202,97.339H176.239 c5.907-34.672,17.208-54.705,31.847-73.198c-69.6,32.36-113.005,89.12-111.978,174.648 c0.769,66.262,46.485,134.322,111.979,159.493c77.307,29.536,178.785,6.677,222.702-19.776v-96.826 c-74.993,52.394-251.209,56.504-252.493-62.668h291.275V244.565L469.571,244.565z" style="fill:#0078D7;" />
</svg>
