<?xml version="1.0" encoding="utf-8"?>
<svg version="1.0" viewBox="0 0 114.71301 89.990372" xmlns="http://www.w3.org/2000/svg" xmlns:svg="http://www.w3.org/2000/svg">
    <path
        d="m 38.5673,0 c -2.966717,0 -13.844665,28.678248 -13.844665,28.678248 9.88905,4.94452 27.689332,4.94452 32.633862,4.94452 4.944536,0 22.744816,0 32.633866,-4.94452 C 89.990363,28.678248 81.090213,0 78.123523,0 75.156803,0 57.356497,5.93344 57.356497,5.93344 57.356497,5.93344 41.534018,0 38.5673,0 Z"
    />
    <path
        d="m 21.755918,33.622768 c -9.889049,0 -21.755918,0 -21.755918,4.94453 0,4.94452 6.922333,6.92234 16.811382,7.91123 9.889049,0.98893 30.656071,1.97782 40.545115,1.97782 9.889046,0 30.656066,-0.98889 40.545116,-1.97782 9.889047,-0.98889 16.811387,-2.96671 16.811387,-7.91123 0,-4.94453 -11.86687,-4.94453 -21.755917,-4.94453 0,4.94453 -21.75592,6.92233 -35.600586,6.92233 -14.833581,0 -35.600579,-1.9778 -35.600579,-6.92233 z"
    />
    <path
        d="m 6.922333,58.345398 c -1.977797,0 -1.977797,4.94454 0,4.94454 h 4.92582 l 0.01876,19.7781 c 0,3.95561 2.966718,6.92233 6.922333,6.92233 H 45.48968 c 3.955638,0 6.922327,-2.96672 6.922327,-6.92233 v -14.83359 h 9.889076 v 14.83359 c 0,3.95561 2.96669,6.92233 6.92233,6.92233 h 26.70043 c 3.95562,0 6.922327,-2.96672 6.922327,-6.92233 v -19.7781 h 4.92582 c 1.99652,0 1.99652,-4.94454 0,-4.94454 H 57.356547 Z m 40.54512,24.72264 c 0,0.9889 -0.988899,1.97779 -1.97782,1.97779 H 18.789201 c -0.988898,0 -1.977819,-0.98889 -1.977819,-1.97779 v -19.7781 h 30.656071 z m 50.43416,0 c 0,0.9889 -0.98892,1.97779 -1.97781,1.97779 h -26.70044 c -0.98892,0 -1.97782,-0.98889 -1.97782,-1.97779 v -19.7781 h 30.65607 z"
    />
</svg>
