<?xml version="1.0" encoding="utf-8"?>
<svg viewBox="0 0 512 512" xmlns="http://www.w3.org/2000/svg" xmlns:xlink="http://www.w3.org/1999/xlink" xml:space="preserve">
	<path
        transform="scale(-1, 1) translate(-512, 0)"
        d="M387.187,68.12c-4.226,0-8.328,0.524-12.249,1.511V55.44c0-27.622-22.472-50.094-50.094-50.094 c-10.293,0-19.865,3.123-27.834,8.461C288.017,5.252,275.869,0,262.508,0c-22.84,0-42.156,15.365-48.16,36.302 c-5.268-1.887-10.935-2.912-16.844-2.912c-27.622,0-50.094,22.472-50.094,50.094v82.984c-5.996-2.332-12.508-3.616-19.318-3.616 c-29.43,0-53.373,23.936-53.373,53.366v99.695c0,63.299,38.525,185.645,184.315,195.649c4.274,0.289,8.586,0.438,12.813,0.438 c91.218,0,165.435-72.378,165.435-161.35V118.214C437.281,90.592,414.81,68.12,387.187,68.12z M271.846,483.947 c-3.585,0-7.209-0.126-10.896-0.376c-134.659-9.237-158.179-126.668-158.179-167.659v-99.695c0-13.979,11.341-25.313,25.32-25.313 c13.98,0,25.321,11.334,25.321,25.313v76.997h22.05V83.485c0-12.172,9.87-22.042,22.041-22.042c12.172,0,22.042,9.87,22.042,22.042 v152.959h20.922V50.094c0-12.172,9.87-22.041,22.041-22.041c12.172,0,22.042,9.87,22.042,22.041v186.35h18.253V55.44 c0-12.172,9.87-22.041,22.042-22.041c12.171,0,22.041,9.87,22.041,22.041v181.004h18.261v-118.23 c0-12.172,9.87-22.042,22.041-22.042c12.172,0,22.042,9.87,22.042,22.042V350.65C409.229,419.748,353.445,483.947,271.846,483.947z"
    />
</svg>
